<svg width="198" height="41" viewBox="0 0 198 41" fill="none" xmlns="http://www.w3.org/2000/svg">
<path d="M172.057 0.421051H183.985V30.6708H197.849V41H172.057V0.421051Z" fill="white"/>
<path d="M144.188 0H156.24V30.5636H170.248V41H144.188V0Z" fill="white"/>
<path d="M114.444 0H126.216L143.113 41H130.285L127.676 33.8871H113.046L110.406 41H97.5468L114.444 0ZM117.084 23.4508H123.638L120.407 14.4121H120.314L117.084 23.4508Z" fill="white"/>
<path d="M86.0017 29.4912C87.4003 29.4912 88.749 29.2714 90.0477 28.8319C91.3665 28.3923 92.3855 27.9527 93.1048 27.5132L98.0499 37.3436C97.0909 38.1428 95.4625 38.952 93.1647 39.7712C90.867 40.5904 88.1596 41 85.0426 41C82.1255 41 79.3682 40.5005 76.7707 39.5015C74.1732 38.4825 71.8655 37.0539 69.8475 35.2156C67.8494 33.3774 66.2809 31.2195 65.142 28.742C64.0032 26.2444 63.4337 23.5171 63.4337 20.5599C63.4337 17.6028 64.0032 14.8755 65.142 12.3779C66.2809 9.86038 67.8494 7.68251 69.8475 5.8443C71.8455 3.98611 74.1433 2.54751 76.7407 1.52851C79.3582 0.509503 82.1255 0 85.0426 0C88.1596 0 90.867 0.4096 93.1647 1.2288C95.4625 2.048 97.0909 2.85721 98.0499 3.65644L93.1048 13.4868C92.3855 13.0473 91.3665 12.6077 90.0477 12.1681C88.749 11.7286 87.4003 11.5088 86.0017 11.5088C84.1036 11.5088 82.5151 11.7785 81.2363 12.318C79.9576 12.8575 78.9286 13.5768 78.1494 14.4759C77.3901 15.355 76.8406 16.3241 76.501 17.383C76.1813 18.422 76.0214 19.451 76.0214 20.47C76.0214 21.509 76.1813 22.558 76.501 23.617C76.8406 24.6759 77.3901 25.655 78.1494 26.5541C78.9286 27.4332 79.9576 28.1425 81.2363 28.682C82.5151 29.2215 84.1036 29.4912 86.0017 29.4912Z" fill="white"/>
<rect x="34.8489" width="26.3207" height="10.25" fill="#CD1B1B"/>
<rect x="34.8489" y="15.375" width="26.3207" height="10.25" fill="#CD1B1B"/>
<rect x="34.8489" y="30.75" width="26.3207" height="10.25" fill="#CD1B1B"/>
<path d="M0 0H18.6982C21.225 0 23.457 0.536941 25.3942 1.61082C27.3314 2.66365 28.8474 4.17972 29.9424 6.15904C31.0373 8.11729 31.5848 10.444 31.5848 13.1393C31.5848 15.8135 31.1426 17.9823 30.2582 19.6457C29.3949 21.2882 28.3526 22.52 27.1313 23.3412C25.9101 24.1624 24.7835 24.6888 23.7518 24.9204L33.7326 41H20.0248L11.4337 25.8679H12.2549V41H0V0ZM12.2549 17.5927H14.2763C15.3923 17.5927 16.4557 17.3295 17.4664 16.8031C18.4982 16.2767 19.014 15.1923 19.014 13.5499C19.014 11.9075 18.5192 10.8231 17.5296 10.2966C16.5399 9.77023 15.4871 9.50702 14.3711 9.50702H12.2549V17.5927Z" fill="white"/>
</svg> 